<?xml version="1.0" encoding="utf-8"?>
<!-- Generator: Adobe Illustrator 25.2.0, SVG Export Plug-In . SVG Version: 6.00 Build 0)  -->
<svg version="1.1" id="Layer_1" xmlns="http://www.w3.org/2000/svg" xmlns:xlink="http://www.w3.org/1999/xlink" x="0px" y="0px"
	 viewBox="0 0 1920 2311" style="enable-background:new 0 0 1920 2311;" xml:space="preserve">
<style type="text/css">
	.st0{fill:#FFE793;stroke:#000000;stroke-width:5;}
</style>
<path class="st0" d="M2085.2,89.7c-398.2-76.8-698.1-78.8-968.7-66.4l-0.2-0.9l0.2,0.9C981.5,29.5,879.2,38,775.4,47
	c-7.1,0.6-14.2,1.3-21.4,1.9c-97,8.4-197.3,17.2-328.2,24.7c-89.4,5.1-145.3,7.1-183.7,6.5c-38.5-0.6-59.4-3.8-78.8-9.3
	c-8.5-2.4-16.8-5.3-26-8.4c-1.1-0.4-2.3-0.7-3.4-1.2c-10.7-3.7-22.9-7.8-38.7-12.3C64,39.9,18.7,29.4-56.2,17.7V931h2042.1
	c-19.5-232.6,15-326.6,49.6-420.7l0,0C2070.2,416.3,2104.8,322.3,2085.2,89.7z"/>
</svg>
