<svg width="327" height="74" viewBox="0 0 327 74" fill="none" xmlns="http://www.w3.org/2000/svg">
<path d="M25.2757 58.8726H60.3689L60.3451 55.8579C60.2128 39.2872 60.0807 22.5851 59.949 5.75169L59.9271 2.9336C55.0261 1.3716 49.9083 0.596353 44.7643 0.636755C40.9553 0.669988 31.7136 0.627221 23.0115 6.08022C12.6506 12.572 8.23161 22.6111 5.80883 29.5966C2.38844 39.4714 1.18085 49.5048 0.77325 56.1874C0.411259 62.1693 0.512928 68.2262 1.06589 73.738H7.08387C6.68198 70.0036 6.29718 63.9904 6.74753 56.552C7.12757 50.2454 8.26199 40.7903 11.4629 31.5592C13.5902 25.4273 17.4306 16.6397 26.1896 11.1515C30.9715 8.15585 36.0432 6.93004 40.7083 6.63759C35.6261 9.78994 29.0352 16.2826 24.4509 29.6004C21.0305 39.4752 19.8239 49.5076 19.4154 56.1865C18.965 63.6325 19.308 69.7454 19.708 73.7371H25.726C25.3687 70.4043 25.0239 65.2428 25.2757 58.8726ZM30.1098 31.5497C34.4119 19.0514 40.4166 13.6041 44.6959 11.2303L44.7158 11.2189C48.1885 9.25917 51.473 8.77495 53.986 8.70563C54.1032 23.5369 54.2198 38.2652 54.3357 52.8907H25.6766C26.2457 46.8737 27.478 39.1381 30.1098 31.5497Z" fill="white"/>
<path d="M111.905 31.1291C112.146 31.2985 112.369 31.4919 112.57 31.7063C112.776 31.9245 112.962 32.1346 113.134 32.3355C113.914 33.3015 114.536 34.3811 114.979 35.5355C115.424 36.7036 115.649 37.9416 115.644 39.1892C115.649 39.4253 115.632 39.6614 115.594 39.8946C115.51 41.7185 114.906 43.4825 113.851 44.9843C112.914 46.377 111.648 47.5257 110.162 48.3321C108.658 49.1564 106.984 49.5681 105.14 49.5674H101.759C99.9153 49.5674 98.2416 49.1556 96.7377 48.3321C95.2509 47.526 93.985 46.3772 93.0486 44.9843C92.7454 44.5313 92.471 44.0601 92.227 43.5736L96.9924 39.9453C97.0921 40.5755 97.3093 41.1822 97.6332 41.7347C97.952 42.2825 98.3587 42.776 98.8375 43.1961C99.32 43.619 99.8769 43.952 100.481 44.1786C101.102 44.4148 101.762 44.5343 102.428 44.5306H104.477C105.818 44.5531 107.118 44.0764 108.116 43.1961C109.115 42.3504 109.771 41.1779 109.961 39.8946C109.961 39.7599 109.969 39.6253 109.987 39.4916C110.003 39.3579 110.011 39.2234 110.011 39.0888C110.018 38.3799 109.878 37.677 109.602 37.0223C109.336 36.3959 108.954 35.8237 108.475 35.3346C107.989 34.8422 107.416 34.4408 106.784 34.1502C106.141 33.8498 105.445 33.6782 104.734 33.6457H101.609C100.386 33.6212 99.1783 33.3735 98.0475 32.915C96.9512 32.4703 95.9381 31.8488 95.0499 31.076C94.5744 30.743 94.159 30.3341 93.821 29.8662C93.0398 28.9008 92.4171 27.821 91.9758 26.6661C91.5303 25.498 91.3048 24.2599 91.3103 23.0124V22.3071C91.4801 20.3915 92.078 18.6949 93.1038 17.2173C94.0409 15.8249 95.3065 14.6763 96.7928 13.8695C98.2952 13.046 99.969 12.6342 101.814 12.6342H105.144C106.906 12.6141 108.644 13.0394 110.191 13.8695C111.688 14.6713 112.963 15.8206 113.906 17.2173C114.008 17.3858 114.119 17.5705 114.239 17.7714C114.357 17.9734 114.474 18.1581 114.572 18.3255L109.909 21.9041C109.614 20.715 108.931 19.6537 107.964 18.8831C107.005 18.0873 105.786 17.6578 104.531 17.6732H102.482C101.808 17.6717 101.14 17.7911 100.51 18.0254C99.8977 18.2488 99.3329 18.5824 98.8445 19.0089C98.3614 19.4344 97.9543 19.9366 97.6403 20.4946C97.3192 21.0575 97.1022 21.6719 96.9994 22.3094C96.966 22.4411 96.949 22.5764 96.9489 22.7122V23.1163C96.9426 23.8248 97.082 24.5273 97.3586 25.1815C97.6231 25.809 98.0054 26.382 98.4854 26.8704C98.9713 27.3631 99.5444 27.7645 100.177 28.0549C100.819 28.3556 101.516 28.5267 102.226 28.5582H105.352C106.574 28.5833 107.782 28.8311 108.913 29.2889C110.007 29.7348 111.018 30.3567 111.905 31.1291V31.1291Z" fill="white"/>
<path d="M129.171 44.1303H145.876V49.4221H123.741V12.6333H145.517V17.8282H129.171V30.3259H143.881V35.3649H129.171V44.1303Z" fill="white"/>
<path d="M179.797 29.3145C179.338 30.7878 178.618 32.1698 177.67 33.3966C176.716 34.619 175.545 35.6607 174.212 36.4707C174.14 36.5406 174.052 36.5925 173.955 36.622C173.859 36.652 173.771 36.7038 173.699 36.7732L180.31 49.5733H174.515L168.725 38.4356C168.315 38.5037 167.903 38.551 167.495 38.5868C167.086 38.6226 166.64 38.6376 166.163 38.6376H159.45V49.5733H153.975V12.5329H166.17C167.633 12.5226 169.091 12.7169 170.5 13.1101C171.803 13.4773 173.052 14.0109 174.214 14.6974C176.981 16.4105 178.843 18.8128 179.799 21.9043C179.833 22.0729 179.867 22.2241 179.901 22.3581C179.942 22.5124 179.994 22.664 180.055 22.8118V23.0634C180.125 23.2409 180.168 23.4276 180.183 23.6175C180.2 23.8196 180.226 24.0204 180.26 24.2224V24.2732C180.294 24.4727 180.312 24.6747 180.312 24.877V26.2888C180.312 26.4915 180.294 26.6938 180.26 26.8937V26.9942C180.226 27.1951 180.2 27.389 180.183 27.5714C180.162 27.7679 180.119 27.9616 180.055 28.1486V28.3506C179.933 28.6616 179.846 28.9848 179.797 29.3145V29.3145ZM166.834 33.8999C167.91 33.9121 168.973 33.6698 169.934 33.1934C170.86 32.7308 171.687 32.0957 172.367 31.3232C173.06 30.5338 173.616 29.6366 174.01 28.6681C174.419 27.681 174.628 26.625 174.625 25.5592C174.623 24.5022 174.414 23.4554 174.01 22.4758C173.624 21.5034 173.068 20.6049 172.367 19.8207C171.682 19.0594 170.856 18.4327 169.934 17.9736C168.973 17.4968 167.91 17.2541 166.834 17.266H159.506V33.8895L166.834 33.8999Z" fill="white"/>
<path d="M193.833 44.1303H210.537V49.4221H188.402V12.6333H210.179V17.8282H193.833V30.3259H208.539V35.3649H193.833V44.1303Z" fill="white"/>
<path d="M223.812 49.6239H218.637V11.9785L242.923 40.5525V12.6331H248.1V49.6239H243.072L223.812 26.2909V49.6239Z" fill="white"/>
<path d="M256.189 12.5837H261.671V49.5249H256.189V12.5837Z" fill="white"/>
<path d="M269.768 12.5837H293.747V17.7786H284.475V49.4776H279.044V17.7786H269.771L269.768 12.5837Z" fill="white"/>
<path d="M327 12.5326V12.5834L315.368 37.4783V49.6239H309.887V37.4783L298.255 12.5834H298.307L298.255 12.5326H304.359L312.659 32.288L320.96 12.5326H327Z" fill="white"/>
</svg>
