<svg width="1920" height="1403" viewBox="0 0 1920 1403" fill="none" xmlns="http://www.w3.org/2000/svg">
<path d="M-70.4512 83.2671C-70.4675 83.2636 -70.4839 83.2602 -70.5 83.2567V1400.5H1990.5V81.6121C1990.3 81.4991 1990.06 81.3727 1989.81 81.2333C1988.49 80.5208 1986.47 79.4698 1983.71 78.1354C1978.18 75.4666 1969.68 71.6641 1957.84 67.1698C1934.15 58.1812 1897.11 46.4246 1843.8 35.4356C1737.18 13.4571 1565.52 -5.44985 1305.62 6.99717C1060.46 18.7384 932.768 45.8583 833.75 71.4716C818.669 75.3725 804.243 79.2415 790.161 83.0184C711.723 104.056 643.941 122.236 532.922 127.153C362.813 134.686 211.22 123.55 102.154 110.532C47.6184 104.023 3.70935 97.0428 -26.5731 91.688C-41.7145 89.0106 -53.4495 86.7396 -61.4033 85.137C-65.3801 84.3356 -68.4119 83.7014 -70.4512 83.2671Z" fill="#ECE885" stroke="black" stroke-width="5"/>
</svg>
