<svg width="1920" height="859" viewBox="0 0 1920 859" fill="none" xmlns="http://www.w3.org/2000/svg">
<path d="M1925.72 189.574C1600.71 -9.19647 1355.92 -14.2043 1135.16 17.8415L1134.8 15.3674L1135.16 17.8416C1024.97 33.8184 941.385 55.9573 856.604 79.2941C850.786 80.8954 844.962 82.5025 839.124 84.1136C759.876 105.983 677.927 128.598 570.953 147.88C424.5 174.286 240.575 168.756 61.9316 141.218C-115.016 113.942 -287.007 65.0389 -412.5 4.00541V936H2022.23C2018.23 786.406 2014.23 681.147 2010.22 609.18C2006.19 536.698 2002.17 498.204 1998.21 482.172C1997.28 478.399 1996.42 476.166 1995.72 475.039C1995.6 475.226 1995.45 475.463 1995.29 475.761C1994.86 476.533 1994.41 477.569 1993.93 478.881C1992.98 481.505 1992 485.032 1991 489.331C1987 506.557 1982.99 535.003 1978.96 563.641L1978.94 563.785C1974.93 592.267 1970.89 620.919 1966.84 638.388C1965.83 642.77 1964.79 646.521 1963.74 649.422C1963.21 650.872 1962.66 652.16 1962.07 653.23C1961.51 654.266 1960.82 655.263 1959.96 655.974C1959.05 656.73 1957.74 657.303 1956.23 656.91C1954.88 656.559 1953.94 655.573 1953.3 654.65C1952.01 652.795 1950.92 649.725 1949.9 645.628C1945.81 629.055 1941.78 590.057 1937.76 517.719C1933.74 445.495 1929.73 339.816 1925.72 189.574Z" fill="#1C1C1C" stroke="black" stroke-width="5"/>
</svg>
