<?xml version="1.0" encoding="utf-8"?>
<!-- Generator: Adobe Illustrator 25.2.0, SVG Export Plug-In . SVG Version: 6.00 Build 0)  -->
<svg version="1.1" id="Layer_1" xmlns="http://www.w3.org/2000/svg" xmlns:xlink="http://www.w3.org/1999/xlink" x="0px" y="0px"
	 viewBox="0 0 1920 2311" style="enable-background:new 0 0 1920 2311;" xml:space="preserve">
<style type="text/css">
	.st0{fill:#FFE793;stroke:#000000;stroke-width:5;}
</style>
<path class="st0" d="M2036.3,323c-398.2-72.9-698.1-74.8-968.7-63l-0.2-0.9l0.2,0.9c-135,5.9-237.3,14-341.1,22.5
	c-7.1,0.6-14.2,1.2-21.4,1.8c-97,8-197.3,16.3-328.2,23.4c-89.4,4.8-145.3,6.7-183.7,6.2c-38.5-0.6-59.4-3.6-78.8-8.8
	c-8.5-2.3-16.8-5-26-8c-1.1-0.4-2.3-0.7-3.4-1.1c-10.7-3.5-22.9-7.4-38.7-11.7c-31.2-8.5-76.5-18.5-151.4-29.6v866.8h2042.1
	c-19.5-220.8,15-310,49.6-399.3l0,0C2021.3,633,2055.9,543.8,2036.3,323z"/>
</svg>
