<svg width="1920" height="859" viewBox="0 0 1920 859" fill="none" xmlns="http://www.w3.org/2000/svg">
<path d="M1523.17 143.195C1698.91 116.106 1869.83 67.6929 1995.3 7.1961V880.5H-35.8799C-32.019 731.941 -34.2539 627.904 -41.1075 557.404C-44.569 521.797 -49.2216 494.598 -54.9189 474.477C-60.5793 454.486 -67.4252 440.902 -75.6835 433.151C-79.8879 429.205 -84.5098 426.724 -89.5066 425.771C-94.4864 424.822 -99.5185 425.451 -104.469 427.214C-114.21 430.682 -124.11 438.711 -133.937 449.102C-153.595 469.889 -174.707 502.075 -195.503 533.777L-195.698 534.074C-216.725 566.131 -237.428 597.662 -256.473 617.804C-266.029 627.909 -274.731 634.662 -282.422 637.402C-286.188 638.744 -289.579 639.075 -292.681 638.485C-295.766 637.898 -298.885 636.339 -302.031 633.388C-308.473 627.344 -314.767 615.703 -320.296 596.181C-325.788 576.789 -330.374 550.186 -333.81 514.846C-340.645 444.563 -342.881 340.3 -338.946 190.713C-14.8728 -7.20942 229.166 -12.1416 449.353 19.8208L449.354 19.8209C559.412 35.7792 642.902 57.8906 727.666 81.2223C733.486 82.8243 739.312 84.432 745.153 86.0439C824.399 107.913 906.427 130.549 1013.49 149.849C1160.24 176.307 1344.4 170.753 1523.17 143.195Z" fill="#101010" stroke="black" stroke-width="9"/>
</svg>
