<?xml version="1.0" encoding="utf-8"?>
<!-- Generator: Adobe Illustrator 25.2.0, SVG Export Plug-In . SVG Version: 6.00 Build 0)  -->
<svg version="1.1" id="Layer_1" xmlns="http://www.w3.org/2000/svg" xmlns:xlink="http://www.w3.org/1999/xlink" x="0px" y="0px"
	 viewBox="0 0 1920 859" style="enable-background:new 0 0 1920 859;" xml:space="preserve">
<style type="text/css">
	.st0{fill:#101010;stroke:#000000;stroke-width:9;}
</style>
<path class="st0" d="M1523.2,462.4c175.7-14.6,346.7-40.6,472.1-73.2V859H-35.9c3.9-79.9,1.6-135.9-5.2-173.8
	c-3.5-19.2-8.1-33.8-13.8-44.6c-5.7-10.8-12.5-18.1-20.8-22.2c-4.2-2.1-8.8-3.5-13.8-4c-5-0.5-10-0.2-15,0.8
	c-9.7,1.9-19.6,6.2-29.5,11.8c-19.7,11.2-40.8,28.5-61.6,45.5l-0.2,0.2c-21,17.2-41.7,34.2-60.8,45c-9.6,5.4-18.3,9.1-25.9,10.5
	c-3.8,0.7-7.2,0.9-10.3,0.6c-3.1-0.3-6.2-1.2-9.4-2.7c-6.4-3.3-12.7-9.5-18.3-20c-5.5-10.4-10.1-24.7-13.5-43.8
	c-6.8-37.8-9.1-93.9-5.1-174.4C-14.9,381.5,229.2,378.8,449.4,396l0,0c110.1,8.6,193.5,20.5,278.3,33c5.8,0.9,11.6,1.7,17.5,2.6
	c79.2,11.8,161.3,23.9,268.3,34.3C1160.2,480.2,1344.4,477.2,1523.2,462.4z"/>
</svg>
