<?xml version="1.0" encoding="utf-8"?>
<!-- Generator: Adobe Illustrator 25.2.0, SVG Export Plug-In . SVG Version: 6.00 Build 0)  -->
<svg version="1.1" id="Layer_1" xmlns="http://www.w3.org/2000/svg" xmlns:xlink="http://www.w3.org/1999/xlink" x="0px" y="0px"
	 viewBox="0 0 1920 859" style="enable-background:new 0 0 1920 859;" xml:space="preserve">
<style type="text/css">
	.st0{fill:#1C1C1C;stroke:#000000;stroke-width:5;}
</style>
<path class="st0" d="M1925.7,437.7c-325-115.2-569.8-118.1-790.6-99.6l-0.4-1.4l0.4,1.4c-110.2,9.3-193.8,22.1-278.6,35.6
	c-5.8,0.9-11.6,1.9-17.5,2.8c-79.2,12.7-161.2,25.8-268.2,37c-146.5,15.3-330.4,12.1-509-3.9C-115,393.8-287,365.5-412.5,330.1
	v540.3h2434.7c-4-86.7-8-147.7-12-189.5c-4-42-8-64.3-12-73.6c-0.9-2.2-1.8-3.5-2.5-4.1c-0.1,0.1-0.3,0.2-0.4,0.4
	c-0.4,0.4-0.9,1-1.4,1.8c-1,1.5-1.9,3.6-2.9,6.1c-4,10-8,26.5-12,43.1l0,0.1c-4,16.5-8,33.1-12.1,43.2c-1,2.5-2,4.7-3.1,6.4
	c-0.5,0.8-1.1,1.6-1.7,2.2c-0.6,0.6-1.2,1.2-2.1,1.6c-0.9,0.4-2.2,0.8-3.7,0.5c-1.3-0.2-2.3-0.8-2.9-1.3c-1.3-1.1-2.4-2.9-3.4-5.2
	c-4.1-9.6-8.1-32.2-12.1-74.2C1933.7,586.1,1929.7,524.8,1925.7,437.7z"/>
</svg>
