<?xml version="1.0" encoding="utf-8"?>
<!-- Generator: Adobe Illustrator 25.2.0, SVG Export Plug-In . SVG Version: 6.00 Build 0)  -->
<svg version="1.1" id="Layer_1" xmlns="http://www.w3.org/2000/svg" xmlns:xlink="http://www.w3.org/1999/xlink" x="0px" y="0px"
	 viewBox="0 0 1920 1339" style="enable-background:new 0 0 1920 1339;" xml:space="preserve">
<style type="text/css">
	.st0{fill:#FFFB93;stroke:#000000;stroke-width:9;}
</style>
<path class="st0" d="M1259.9,131.3c279.8,41.6,549.8-16.5,790.1-113.2V1072H-133c7.8-237.2,15.4-353.3,23.1-408.5
	c2-13.7,3.8-23.9,5.7-30.8c2-7.2,3.7-10.8,5.2-12.7c0.3-0.4,0.5-0.6,0.8-0.8c0.1,0,0.1-0.2,0.2-0.2c0.2,0,0.7,0.2,1.4,0.6
	c0.8,0.4,1.5,1.1,2.6,1.9h0.1c0.9,0.6,2.1,1.5,3.2,2.1c1.1,0.6,2.6,1.5,4.3,1.9c1.9,0.4,3.8,0.4,5.9-0.4c2-0.8,3.4-2.1,4.6-3.6
	c2.4-3,4.4-8,6.3-15.2c2-7.4,3.9-17.5,5.9-31.5c8.1-56.2,16-172.7,23.5-411.4C271.4,6.3,506,2.3,717.7,27.8l0,0
	c105.8,12.7,186,30.4,267.5,48.8c5.6,1.3,11.1,2.5,16.8,3.8C1078.1,97.9,1156.9,115.9,1259.9,131.3z"/>
</svg>
