<svg width="1014" height="492" viewBox="0 0 1014 492" fill="none" xmlns="http://www.w3.org/2000/svg">
<path d="M1.49969 318.077C41.8122 294.952 191.156 249.359 466.031 251.984C740.906 254.609 1032.75 272.656 1119.47 293.594" stroke="black" stroke-width="5"/>
<path d="M423.375 428C513.375 407.557 513.546 387.657 877.594 334.9C1309.78 272.269 1875.09 311.749 2019 428" stroke="black" stroke-width="5"/>
<g filter="url(#filter0_d_0_196)">
<path d="M852.209 155.808L1007.47 155.019V129.837H852.209V155.808ZM1006.34 153.902L853.334 154.68V130.952H1006.34V153.902Z" fill="black"/>
<path d="M933.557 150.554H972.184V130.181H971.059V149.43H934.682V129.844H904.157V149.992H905.283V130.968H933.557V150.554Z" fill="black"/>
<path d="M709.747 83.6667L865.006 82.8731V57.6912H709.747V83.6667ZM863.881 81.7489L710.873 82.5268V58.8154H863.881V81.7489Z" fill="black"/>
<path d="M791.096 78.4122H829.723V58.0374H828.598V77.288H792.221V57.7001H752.694V77.8501H753.819V58.8243H791.096V78.4122Z" fill="black"/>
<path d="M173.191 192.731H173.794L350.19 191.946V166.675H173.191V192.731ZM348.988 190.748L174.393 191.526V167.875H348.988V190.748Z" fill="black"/>
<path d="M265.972 187.476H309.947V167.066H308.745V186.276H267.174V166.69H221.187V186.876H222.389V167.891H265.972V187.476Z" fill="black"/>
<path d="M439.8 159.918H901.979L868.152 103.565L457.524 107.556L453.925 118.188L452.305 122.975L447.799 136.288L446.179 141.077L439.8 159.918Z" fill="white"/>
<path d="M438.232 161.042H903.966L868.787 102.434H868.141L457.513 106.425H456.714L438.232 161.042ZM899.992 158.794H441.369L458.334 108.673L867.52 104.696L899.992 158.794Z" fill="black"/>
<path d="M521.309 150.003H396.805L284.646 195.022L521.309 199.148V150.003Z" fill="white"/>
<path d="M522.436 200.292V148.879H396.587L396.386 148.96L279.071 196.05L522.436 200.292ZM520.185 151.127V198.006L290.225 193.995L397.023 151.127H520.185Z" fill="black"/>
<path d="M1010.33 150.003H521.308L457.477 205.345L555.959 211.588L655.107 169.139H1023.11L1010.33 150.003Z" fill="white"/>
<path d="M556.155 212.728L556.402 212.622L655.337 170.265H1025.22L1010.94 148.879H520.895L454.673 206.293L556.155 212.728ZM1021.01 168.017H654.875L555.763 210.45L460.288 204.396L521.73 151.127H1009.73L1021.01 168.017Z" fill="black"/>
<path d="M491.013 233.557H1013.43L976.494 168.959L567.831 167.63L554.181 179.344L546.322 186.089L524.471 204.843L516.611 211.588L491.013 233.557Z" fill="white"/>
<path d="M487.977 234.681H1015.36L977.149 167.837H976.499L567.414 166.513L487.977 234.681ZM1011.49 232.433H494.054L568.247 168.761L975.833 170.085L1011.49 232.433Z" fill="black"/>
<path d="M518.056 211.588H651.846V179.344H555.626L547.767 186.089L525.916 204.843L518.056 211.588Z" fill="black"/>
<path d="M525.915 204.843H636.213V186.089H547.767L525.915 204.843Z" fill="white"/>
<path d="M1090.51 260.978L1058.31 221.715H351.167L428.25 277.266L1090.51 282.203V260.978Z" fill="white"/>
<path d="M1091.64 283.336V260.578L1091.39 260.27L1058.85 220.593H347.692L427.89 278.39H428.248L1090.51 283.336H1091.64ZM1089.39 261.381V281.072L428.608 276.144L354.644 222.839H1057.78L1089.39 261.381Z" fill="black"/>
<path d="M1132.86 311.695L1095.46 254.564H773.397L477.559 179.342H162.35L273.397 311.695H1132.86Z" fill="white"/>
<path d="M272.871 312.819H1134.94L1096.06 253.442H773.539L477.698 178.22H159.937L272.871 312.819ZM1130.78 310.571H273.922L164.767 180.468H477.424L773.255 255.69H1094.85L1130.78 310.571Z" fill="black"/>
<path d="M901.979 109.492H427.998L540.558 56.1309H690.052L710.837 76.8947H879.106L901.979 109.492Z" fill="white"/>
<path d="M423.002 110.616H904.139L879.689 75.766H711.3L690.516 55H540.301L540.076 55.1102L423.002 110.616ZM899.816 108.368H432.995L540.799 57.2551H689.564L710.362 78.0211H878.521L899.816 108.368Z" fill="black"/>
<path d="M1113.55 282.203H610.187L373.955 221.715H199.667L273.397 311.695H1132.86L1113.55 282.203Z" fill="black"/>
<path d="M740.295 179.342H932.07V211.586H740.295V179.342Z" fill="black"/>
<path d="M755.928 204.841V186.087H916.437V204.841H755.928Z" fill="white"/>
<path d="M724.743 118.186H832.109V141.075H724.743V118.186Z" fill="black"/>
<path d="M733.494 136.288V122.975H823.356V136.288H733.494Z" fill="white"/>
<path d="M447.356 141.077H539.154V118.188H455.102L453.482 122.975L448.976 136.288L447.356 141.077Z" fill="black"/>
<path d="M448.976 136.288H530.401V122.975H453.482L448.976 136.288Z" fill="white"/>
<path d="M567.606 118.186H621.29V141.075H567.606V118.186Z" fill="black"/>
<path d="M571.983 136.288V122.975H616.914V136.288H571.983Z" fill="white"/>
<path d="M679.967 179.342H712.243V211.586H679.967V179.342Z" fill="black"/>
<path d="M679.965 118.186H702.876V141.075H679.965V118.186Z" fill="black"/>
<path d="M643.652 118.186H666.563V141.075H643.652V118.186Z" fill="black"/>
</g>
<defs>
<filter id="filter0_d_0_196" x="42.9371" y="0" width="1209" height="491.819" filterUnits="userSpaceOnUse" color-interpolation-filters="sRGB">
<feFlood flood-opacity="0" result="BackgroundImageFix"/>
<feColorMatrix in="SourceAlpha" type="matrix" values="0 0 0 0 0 0 0 0 0 0 0 0 0 0 0 0 0 0 127 0" result="hardAlpha"/>
<feOffset dy="62"/>
<feGaussianBlur stdDeviation="58.5"/>
<feComposite in2="hardAlpha" operator="out"/>
<feColorMatrix type="matrix" values="0 0 0 0 0 0 0 0 0 0 0 0 0 0 0 0 0 0 0.25 0"/>
<feBlend mode="normal" in2="BackgroundImageFix" result="effect1_dropShadow_0_196"/>
<feBlend mode="normal" in="SourceGraphic" in2="effect1_dropShadow_0_196" result="shape"/>
</filter>
</defs>
</svg>
