<svg width="1197" height="405" viewBox="0 0 1197 405" fill="none" xmlns="http://www.w3.org/2000/svg">
<g clip-path="url(#clip0_0_18)">
<path d="M899.799 166.449L711.259 2.99805L212.447 20.0866L360.905 46.8327L236.201 225.142L899.799 166.449Z" fill="white" stroke="black" stroke-width="10" stroke-miterlimit="10"/>
<path d="M364.369 45.5925L239.665 223.901L251.487 222.856L386.135 210.947L405.464 209.238L567.167 194.935L582.893 193.542L838.424 170.944L903.263 165.209L714.723 1.75781L215.911 18.8463L364.369 45.5925Z" fill="white" stroke="black" stroke-width="10" stroke-miterlimit="10"/>
<path d="M578.971 39.6277L582.893 193.542L838.424 170.944L697.525 31.2311L578.971 39.6277Z" fill="black"/>
<path d="M807.398 159.74L692.228 45.5369L593.191 52.5543L596.398 178.399L807.398 159.74Z" fill="white"/>
<path d="M405.464 209.238L567.167 194.935L556.123 47.0793L440.405 58.0606L405.464 209.238Z" fill="black"/>
<path d="M552.298 182.3L543.333 62.2537L451.675 70.9525L423.304 193.713L552.298 182.3Z" fill="white"/>
<path d="M251.487 222.856L386.135 210.947L421.031 58.2239L369.069 67.1381L251.487 222.856Z" fill="black"/>
<path d="M374.851 197.996L402.854 75.4409L376.829 79.905L281.423 206.261L374.851 197.996Z" fill="white"/>
<path d="M181.956 173.817L666.6 67.6731L666.784 67.6315H1197L1161.08 162.151L1159.98 162.238L139.594 241.483L136.002 241.765L181.956 173.817ZM1158.61 158.858L1191.97 71.1054H1111.37L1063.37 155.422L1060.36 153.703L1107.37 71.1054H981.44L933.441 155.422L930.425 153.703L977.445 71.1054H835.04L787.045 155.422L784.029 153.703L831.045 71.1054H671.962L616.245 151.601L613.392 149.624L667.742 71.1123H667.148L460.734 116.323L405.696 195.849L402.847 193.869L455.774 117.403L313.022 148.669L257.55 228.807L254.697 226.827L308.037 149.749L184.055 176.902L142.912 237.731L1158.61 158.858Z" fill="black"/>
<path d="M19.7006 403.201L866.892 368.53L1186.57 152.581L663.011 130.785L102.838 222.911L1.88817 296.216L19.7006 403.201Z" fill="white" stroke="black" stroke-width="10" stroke-miterlimit="10"/>
<path d="M1186.57 152.581L867.881 277.891L12.974 362.802L19.7006 403.2L866.892 368.53L1186.57 152.581Z" fill="#101010"/>
<path d="M615.339 302.973L486.314 258.575L1.88814 296.216L12.974 362.802L615.339 302.973Z" fill="#101010"/>
<path d="M843.89 219.703L876.538 213.25L882.984 245.928L850.336 252.38L843.89 219.703Z" fill="black"/>
<path d="M774.761 231.606L807.409 225.153L813.856 257.831L781.208 264.283L774.761 231.606Z" fill="black"/>
</g>
<defs>
<clipPath id="clip0_0_18">
<rect width="1197" height="405" fill="white" transform="matrix(-1 0 0 1 1197 0)"/>
</clipPath>
</defs>
</svg>
