<svg width="213" height="50" viewBox="0 0 213 50" fill="none" xmlns="http://www.w3.org/2000/svg">
<path d="M18.4529 39.5176H40.6543H41.1583L41.1543 39.0137L41.1389 37.0651C41.0534 26.354 40.968 15.5581 40.8829 4.67729L40.8687 2.85576L40.8659 2.49331L40.5206 2.38324C37.3023 1.35754 33.9417 0.848479 30.5638 0.875009L30.5634 0.875013C30.508 0.875496 30.4508 0.875951 30.3918 0.876421C27.8271 0.896835 21.8679 0.944265 16.2417 4.46985C9.39665 8.75868 6.49221 15.3835 4.91525 19.9303L4.91518 19.9305C2.68381 26.3725 1.89861 32.9076 1.63365 37.2515L1.63364 37.2518C1.39817 41.143 1.46408 45.0849 1.82438 48.6763L1.86954 49.1264H2.32189H6.2118H6.7685L6.70893 48.5729C6.45157 46.1815 6.20437 42.3231 6.49348 37.5479L6.49349 37.5477C6.73768 33.4955 7.46636 27.4339 9.51472 21.5266C10.8806 17.5894 13.3156 12.0485 18.8269 8.59526C21.1948 7.11189 23.6789 6.31654 26.0694 5.95529C22.9988 8.34844 19.5041 12.5573 16.965 19.9334C14.7337 26.3753 13.9491 32.9095 13.6836 37.2508L13.6836 37.2512C13.3906 42.0954 13.6136 46.0738 13.8743 48.6756L13.9194 49.1258H14.3718H18.2617H18.8182L18.7589 48.5725C18.5391 46.5225 18.3261 43.3861 18.4529 39.5176ZM21.5678 21.5204L21.5681 21.5193C24.3144 13.5409 28.1224 10.1262 30.7661 8.65974L30.7661 8.65978L30.7717 8.65657L30.7822 8.65058C30.7826 8.65036 30.783 8.65015 30.7833 8.64993C32.7103 7.56271 34.5437 7.20708 36.0327 7.11333C36.1057 16.3544 36.1783 25.5336 36.2506 34.6511H18.7815C19.1688 30.8713 19.9625 26.1491 21.5678 21.5204Z" fill="#FFFB93" stroke="black"/>
<path d="M73.9661 21.0846C74.1222 21.1941 74.2664 21.3191 74.3963 21.4577C74.5291 21.5987 74.6497 21.7345 74.7605 21.8644C75.2647 22.4888 75.6671 23.1866 75.9531 23.9328C76.2409 24.6878 76.3867 25.4881 76.3833 26.2945C76.3864 26.4471 76.3755 26.5997 76.3507 26.7504C76.2968 27.9294 75.9064 29.0696 75.224 30.0404C74.6186 30.9406 73.8004 31.6831 72.8395 32.2043C71.8674 32.7371 70.7855 33.0033 69.5939 33.0028H67.4081C66.2165 33.0028 65.1346 32.7366 64.1625 32.2043C63.2015 31.6833 62.3832 30.9407 61.778 30.0404C61.5819 29.7475 61.4046 29.443 61.2469 29.1285L64.3271 26.7833C64.3916 27.1906 64.532 27.5827 64.7414 27.9399C64.9474 28.2939 65.2103 28.6129 65.5198 28.8845C65.8317 29.1579 66.1916 29.3731 66.5819 29.5195C66.9833 29.6723 67.4102 29.7495 67.8406 29.7471H69.1652C70.0318 29.7617 70.8719 29.4535 71.5171 28.8845C72.1633 28.3378 72.5868 27.58 72.7097 26.7504C72.7097 26.6634 72.7152 26.5764 72.7265 26.49C72.737 26.4036 72.7424 26.3166 72.7424 26.2296C72.7464 25.7714 72.6564 25.317 72.4776 24.8939C72.3057 24.489 72.0587 24.1191 71.7493 23.803C71.4351 23.4847 71.0646 23.2252 70.656 23.0374C70.2409 22.8432 69.7906 22.7323 69.3314 22.7113H67.311C66.5206 22.6955 65.7401 22.5353 65.0092 22.239C64.3005 21.9516 63.6457 21.5498 63.0715 21.0503C62.7642 20.835 62.4957 20.5707 62.2772 20.2683C61.7722 19.6443 61.3698 18.9463 61.0845 18.1998C60.7965 17.4448 60.6508 16.6445 60.6544 15.8381V15.3822C60.7641 14.144 61.1506 13.0474 61.8136 12.0922C62.4193 11.1922 63.2374 10.4498 64.1981 9.92828C65.1693 9.39599 66.2511 9.12984 67.4438 9.12984H69.5962C70.7352 9.11681 71.8585 9.39174 72.8585 9.92828C73.8261 10.4466 74.6503 11.1894 75.2597 12.0922C75.3259 12.2012 75.3978 12.3206 75.4751 12.4504C75.551 12.581 75.6269 12.7004 75.6906 12.8086L72.6764 15.1217C72.4858 14.3531 72.0442 13.6671 71.4193 13.169C70.7991 12.6546 70.0113 12.377 69.2001 12.387H67.8755C67.4401 12.386 67.0082 12.4631 66.6009 12.6146C66.2051 12.759 65.84 12.9746 65.5243 13.2503C65.212 13.5253 64.9489 13.8499 64.7459 14.2106C64.5384 14.5745 64.3981 14.9717 64.3317 15.3837C64.3101 15.4689 64.2991 15.5563 64.2991 15.6441V15.9052C64.295 16.3632 64.385 16.8173 64.5638 17.2402C64.7348 17.6458 64.9819 18.0161 65.2922 18.3319C65.6063 18.6503 65.9767 18.9098 66.3854 19.0975C66.8005 19.2918 67.2509 19.4024 67.7101 19.4228H69.7305C70.5208 19.439 71.3013 19.5992 72.0323 19.8952C72.7395 20.1834 73.3931 20.5853 73.9661 21.0846V21.0846Z" fill="black"/>
<path d="M85.1271 29.4882H95.9246V32.9087H81.6167V9.12903H95.6924V12.4869H85.1271V20.5652H94.6348V23.8223H85.1271V29.4882Z" fill="black"/>
<path d="M117.85 19.9115C117.554 20.8638 117.088 21.7571 116.476 22.55C115.859 23.3402 115.102 24.0135 114.241 24.5371C114.194 24.5823 114.137 24.6158 114.074 24.6349C114.012 24.6543 113.956 24.6878 113.909 24.7326L118.182 33.0064H114.436L110.694 25.8071C110.429 25.8512 110.163 25.8818 109.899 25.9049C109.635 25.928 109.346 25.9377 109.038 25.9377H104.699V33.0064H101.159V9.06409H109.042C109.988 9.05744 110.931 9.18306 111.841 9.43719C112.683 9.67454 113.491 10.0195 114.242 10.4632C116.031 11.5706 117.234 13.1234 117.852 15.1217C117.874 15.2306 117.896 15.3284 117.918 15.4149C117.945 15.5147 117.978 15.6127 118.017 15.7082V15.8708C118.063 15.9856 118.09 16.1063 118.1 16.229C118.111 16.3596 118.128 16.4894 118.15 16.62V16.6528C118.172 16.7818 118.183 16.9123 118.183 17.0431V17.9557C118.183 18.0867 118.172 18.2175 118.15 18.3467V18.4116C118.128 18.5415 118.111 18.6668 118.1 18.7847C118.087 18.9118 118.059 19.0369 118.017 19.1578V19.2884C117.939 19.4894 117.883 19.6984 117.85 19.9115V19.9115ZM109.472 22.8754C110.167 22.8832 110.854 22.7266 111.475 22.4187C112.074 22.1197 112.608 21.7092 113.048 21.2099C113.496 20.6996 113.855 20.1196 114.11 19.4936C114.374 18.8556 114.509 18.173 114.508 17.4841C114.506 16.8009 114.371 16.1243 114.11 15.491C113.86 14.8625 113.501 14.2817 113.048 13.7748C112.605 13.2828 112.071 12.8776 111.475 12.5809C110.854 12.2727 110.167 12.1158 109.472 12.1235H104.735V22.8687L109.472 22.8754Z" fill="black"/>
<path d="M126.923 29.4882H137.72V32.9087H123.413V9.12903H137.489V12.4869H126.923V20.5652H136.429V23.8223H126.923V29.4882Z" fill="black"/>
<path d="M146.301 33.0393H142.956V8.70593L158.654 27.1757V9.12902H162V33.0393H158.751L146.301 17.9572V33.0393Z" fill="black"/>
<path d="M167.229 9.09692H170.773V32.9751H167.229V9.09692Z" fill="black"/>
<path d="M176.006 9.09692H191.506V12.4548H185.512V32.9445H182.002V12.4548H176.008L176.006 9.09692Z" fill="black"/>
<path d="M213 9.06409V9.09692L205.481 25.1885V33.0392H201.938V25.1885L194.42 9.09692H194.453L194.42 9.06409H198.365L203.73 21.8337L209.096 9.06409H213Z" fill="black"/>
</svg>
