<svg width="1009" height="456" viewBox="0 0 1009 456" fill="none" xmlns="http://www.w3.org/2000/svg">
<g filter="url(#filter0_d_0_69)">
<path d="M87 331L354.377 157.952H652.233L921.649 331H87Z" fill="#101010"/>
<path d="M286.107 224.842V92.9879L355.333 97.0941L363.984 117.217L439.502 118.136V176.643L378.428 224.842H286.107Z" fill="white"/>
<path d="M378.637 225.441H285.506V92.3504L355.731 96.5154L364.375 116.622L440.095 117.543V176.933L439.868 177.113L378.637 225.441ZM286.706 224.241H378.22L438.901 176.352V118.739L363.586 117.812L354.928 97.6689L286.706 93.6214V224.241Z" fill="black"/>
<path d="M435.91 149.956L378.428 189.132V149.956H435.91Z" fill="#101010"/>
<path d="M377.827 190.267V149.354H437.859L377.827 190.267ZM379.027 150.555V187.995L433.963 150.555H379.027Z" fill="black"/>
<path d="M355.333 97.0942L362.804 114.543L378.428 149.956" fill="white"/>
<path d="M377.88 150.198L362.256 114.786L354.782 97.3289L355.885 96.8574L363.357 114.307L378.977 149.715L377.88 150.198Z" fill="black"/>
<path d="M378.428 132.506H286.107V224.842H378.428V132.506Z" fill="white"/>
<path d="M379.027 225.441H285.506V131.905H379.027V225.441ZM286.706 224.241H377.827V133.107H286.706V224.241Z" fill="black"/>
<path d="M362.805 224.842V140.814H286.107" fill="white"/>
<path d="M363.406 224.842H362.205V141.415H286.107V140.215H363.406V224.842Z" fill="black"/>
<path d="M299.485 93.5433L298.428 94.1119L319.281 132.872L320.338 132.303L299.485 93.5433Z" fill="black"/>
<path d="M436.509 149.956H435.309V179.479H436.509V149.956Z" fill="black"/>
<path d="M93.3486 329.798V107.409L210.107 114.335L224.699 148.276L352.068 149.826V248.506L249.059 329.798H93.3486Z" fill="white"/>
<path d="M249.411 330.81H92.3347V106.335L210.789 113.361L225.361 147.274L353.062 148.826V249.004L352.677 249.308L249.411 330.81ZM94.3585 328.786H248.709L351.056 248.014V150.824L224.027 149.28L209.423 115.308L94.3585 108.484V328.786Z" fill="black"/>
<path d="M346.009 203.495L249.059 269.572V203.495H346.009Z" fill="#101010"/>
<path d="M248.047 271.484V202.473H349.29L248.047 271.484ZM250.071 204.497V267.639L342.729 204.497H250.071Z" fill="black"/>
<path d="M210.107 114.335L222.707 143.767L249.059 203.495" fill="white"/>
<path d="M248.134 203.904L221.783 144.176L209.176 114.734L211.036 113.936L223.638 143.368L249.986 203.086L248.134 203.904Z" fill="black"/>
<path d="M249.059 174.063H93.3466V329.8H249.059V174.063Z" fill="white"/>
<path d="M250.071 330.81H92.3347V173.049H250.071V330.81ZM94.3585 328.786H248.047V175.073H94.3585V328.786Z" fill="black"/>
<path d="M222.707 329.798V188.078H93.3486" fill="white"/>
<path d="M223.721 329.798H221.698V189.09H93.3486V187.066H223.721V329.798Z" fill="black"/>
<path d="M115.863 108.28L114.081 109.239L149.252 174.613L151.034 173.654L115.863 108.28Z" fill="black"/>
<path d="M347.021 203.495H344.997V253.288H347.021V203.495Z" fill="black"/>
<path d="M716.875 224.842V92.9879L647.649 97.0941L639 117.217L563.48 118.136V176.643L624.556 224.842H716.875Z" fill="white"/>
<path d="M717.476 225.441H624.345L624.183 225.312L562.881 176.933V117.543H563.474L638.601 116.63L647.244 96.5234L717.47 92.3585L717.476 225.441ZM624.762 224.241H716.276V93.6234L648.054 97.6709L639.396 117.814L564.081 118.731V176.354L624.762 224.241Z" fill="black"/>
<path d="M567.074 149.956L624.556 189.132V149.956H567.074Z" fill="#101010"/>
<path d="M625.155 190.267L565.127 149.354H625.155V190.267ZM569.019 150.555L623.955 187.995V150.555H569.019Z" fill="black"/>
<path d="M647.649 97.0942L640.179 114.543L624.556 149.956" fill="white"/>
<path d="M625.104 150.198L624.005 149.715L639.629 114.3L647.099 96.8574L648.202 97.3289L640.73 114.78L625.104 150.198Z" fill="black"/>
<path d="M716.875 132.506H624.554V224.842H716.875V132.506Z" fill="white"/>
<path d="M717.476 225.441H623.955V131.905H717.476V225.441ZM625.155 224.241H716.276V133.107H625.155V224.241Z" fill="black"/>
<path d="M640.179 224.842V140.814H716.875" fill="white"/>
<path d="M640.779 224.842H639.578V140.215H716.875V141.415H640.779V224.842Z" fill="black"/>
<path d="M703.595 93.4764L682.742 132.236L683.799 132.805L704.652 94.045L703.595 93.4764Z" fill="black"/>
<path d="M567.673 149.956H566.473V179.479H567.673V149.956Z" fill="black"/>
<path d="M909.635 329.798V107.409L792.877 114.335L778.285 148.276L650.914 149.826V248.506L753.923 329.798H909.635Z" fill="white"/>
<path d="M910.647 330.81H753.571L649.9 248.996V148.818L650.899 148.806L777.613 147.266L792.184 113.355L910.639 106.329L910.647 330.81ZM754.275 328.786H908.624V108.484L793.559 115.308L778.955 149.28H778.297L651.926 150.816V248.006L754.275 328.786Z" fill="black"/>
<path d="M656.973 203.495L753.923 269.572V203.495H656.973Z" fill="#101010"/>
<path d="M754.935 271.484L653.692 202.473H754.935V271.484ZM660.255 204.497L752.911 267.639V204.497H660.255Z" fill="black"/>
<path d="M792.877 114.335L780.274 143.767L753.923 203.495" fill="white"/>
<path d="M754.85 203.904L752.998 203.086L779.35 143.358L791.946 113.936L793.808 114.734L781.205 144.166L754.85 203.904Z" fill="black"/>
<path d="M909.635 174.063H753.923V329.8H909.635V174.063Z" fill="white"/>
<path d="M910.647 330.81H752.911V173.049H910.647V330.81ZM754.935 328.786H908.623V175.073H754.935V328.786Z" fill="black"/>
<path d="M780.274 329.798V188.078H909.635" fill="white"/>
<path d="M781.286 329.798H779.263V187.066H909.635V189.09H781.286V329.798Z" fill="black"/>
<path d="M887.105 108.182L851.934 173.556L853.716 174.515L888.887 109.141L887.105 108.182Z" fill="black"/>
<path d="M657.985 203.495H655.961V253.288H657.985V203.495Z" fill="black"/>
<path d="M555.202 177.833H447.288L404.592 236.531V311.12L568.62 247.067V311.12H595.597V236.531L555.202 177.833Z" fill="white"/>
<path d="M403.578 312.6V236.202L446.764 176.821H555.727L596.607 236.22V312.132H567.604V248.549L403.578 312.6ZM569.63 310.106H594.585V236.845L554.67 178.845H447.804L405.602 236.861V309.637L569.63 245.586V310.106Z" fill="black"/>
<path d="M595.599 235.52H404.592V237.543H595.599V235.52Z" fill="black"/>
<path d="M492.835 221.97L482.925 190.156H521.518L513.696 221.97H492.835Z" fill="white"/>
<path d="M514.174 222.579H492.386L482.097 189.545H522.295L514.174 222.579ZM493.283 221.365H513.217L520.741 190.771H483.752L493.283 221.365Z" fill="black"/>
<path d="M493.155 159.731L478.372 171.306L489.947 186.088L504.729 174.514L493.155 159.731Z" fill="white"/>
<path d="M489.773 186.874L477.446 171.131L493.189 158.81L505.516 174.553L489.773 186.874ZM479.159 171.339L489.982 185.162L503.804 174.338L492.981 160.516L479.159 171.339Z" fill="black"/>
<path d="M498.859 172.84L491.482 165.463L484.105 172.84L491.482 180.217L498.859 172.84Z" fill="white"/>
<path d="M491.489 181.071L483.25 172.833L491.489 164.594L499.728 172.833L491.489 181.071ZM484.975 172.833L491.489 179.347L498.004 172.833L491.489 166.324L484.975 172.833Z" fill="black"/>
<path d="M493.127 175.064L493.61 171.097L489.643 170.614L489.16 174.581L493.127 175.064Z" fill="white"/>
<path d="M493.756 175.743L488.577 175.113L489.207 169.934L494.385 170.566L493.756 175.743ZM489.935 174.051L492.704 174.393L493.038 171.636L490.281 171.301L489.935 174.051Z" fill="black"/>
<path d="M517.073 172.912L502.291 184.486L513.865 199.269L528.648 187.694L517.073 172.912Z" fill="white"/>
<path d="M513.692 200.053L501.365 184.309L517.109 171.983L529.435 187.726L513.692 200.053ZM503.078 184.512L513.901 198.334L527.723 187.511L516.9 173.689L503.078 184.512Z" fill="black"/>
<path d="M522.777 186.021L515.4 178.644L508.023 186.021L515.4 193.398L522.777 186.021Z" fill="white"/>
<path d="M515.401 194.256L507.162 186.018L515.401 177.779L523.639 186.018L515.401 194.256ZM508.894 186.018L515.409 192.532L521.923 186.018L515.409 179.503L508.894 186.018Z" fill="black"/>
<path d="M517.046 188.242L517.529 184.275L513.561 183.792L513.078 187.759L517.046 188.242Z" fill="white"/>
<path d="M517.675 188.922L512.496 188.292L513.126 183.113L518.305 183.745L517.675 188.922ZM513.854 187.23L516.611 187.564L516.947 184.807L514.19 184.471L513.854 187.23Z" fill="black"/>
<path d="M511.43 157.959L496.647 169.533L508.221 184.316L523.004 172.742L511.43 157.959Z" fill="white"/>
<path d="M508.05 185.103L495.723 169.36L511.464 157.033L523.793 172.776L508.05 185.103ZM497.435 169.568L508.259 183.391L522.081 172.567L511.256 158.745L497.435 169.568Z" fill="black"/>
<path d="M517.135 171.069L509.758 163.692L502.381 171.069L509.758 178.446L517.135 171.069Z" fill="white"/>
<path d="M509.758 179.307L501.517 171.068L509.758 162.829L517.997 171.068L509.758 179.307ZM503.244 171.068L509.758 177.582L516.273 171.068L509.758 164.553L503.244 171.068Z" fill="black"/>
<path d="M511.403 173.293L511.886 169.325L507.918 168.842L507.435 172.81L511.403 173.293Z" fill="white"/>
<path d="M512.031 173.972L506.854 173.343L507.483 168.164L512.662 168.793L512.031 173.972ZM508.21 172.278L510.968 172.614L511.304 169.856L508.546 169.522L508.21 172.278Z" fill="black"/>
<path d="M503.893 176.28L489.11 187.855L500.684 202.637L515.467 191.063L503.893 176.28Z" fill="white"/>
<path d="M500.513 203.424L488.186 187.681L503.93 175.354L516.257 191.097L500.513 203.424ZM489.899 187.89L500.722 201.712L514.544 190.889L503.721 177.066L489.899 187.89Z" fill="black"/>
<path d="M509.6 189.39L502.223 182.013L494.846 189.39L502.223 196.767L509.6 189.39Z" fill="white"/>
<path d="M502.215 197.628L493.977 189.389L502.215 181.15L510.454 189.389L502.215 197.628ZM495.701 189.389L502.215 195.904L508.73 189.389L502.215 182.875L495.701 189.389Z" fill="black"/>
<path d="M503.867 191.613L504.35 187.646L500.382 187.163L499.899 191.13L503.867 191.613Z" fill="white"/>
<path d="M504.496 192.293L499.317 191.664L499.947 186.485L505.126 187.114L504.496 192.293ZM500.675 190.599L503.432 190.935L503.768 188.177L501.011 187.843L500.675 190.599Z" fill="black"/>
<path d="M489.81 173.789L475.028 185.364L486.602 200.146L501.385 188.572L489.81 173.789Z" fill="white"/>
<path d="M486.43 200.931L474.103 185.19L489.846 172.863L502.173 188.604L486.43 200.931ZM475.815 185.398L486.638 199.221L500.461 188.395L489.638 174.573L475.815 185.398Z" fill="black"/>
<path d="M495.518 186.898L488.141 179.52L480.764 186.897L488.141 194.275L495.518 186.898Z" fill="white"/>
<path d="M488.14 195.137L479.901 186.898L488.14 178.657L496.379 186.898L488.14 195.137ZM481.625 186.898L488.14 193.417L494.654 186.904L488.14 180.389L481.625 186.898Z" fill="black"/>
<path d="M489.787 189.123L490.27 185.156L486.302 184.673L485.819 188.64L489.787 189.123Z" fill="white"/>
<path d="M490.415 189.802L485.236 189.167L485.865 183.988L491.044 184.619L490.415 189.802ZM486.594 188.108L489.35 188.444L489.686 185.686L486.93 185.35L486.594 188.108Z" fill="black"/>
<path d="M507.441 159.84L492.609 171.481L504.249 186.313L519.081 174.672L507.441 159.84Z" fill="white"/>
<path d="M499.611 194.558L487.284 178.815L503.027 166.488L515.354 182.231L499.611 194.558ZM488.996 179.023L499.819 192.846L513.642 182.023L502.823 168.2L488.996 179.023Z" fill="black"/>
<path d="M508.697 180.523L501.32 173.146L493.943 180.523L501.32 187.9L508.697 180.523Z" fill="white"/>
<path d="M501.319 188.762L493.08 180.523L501.319 172.284L509.558 180.523L501.319 188.762ZM494.804 180.523L501.319 187.038L507.834 180.523L501.319 174.008L494.804 180.523Z" fill="black"/>
<path d="M502.966 182.746L503.449 178.779L499.481 178.296L498.998 182.263L502.966 182.746Z" fill="white"/>
<path d="M503.594 183.427L498.415 182.798L499.044 177.619L504.223 178.248L503.594 183.427ZM499.773 181.733L502.529 182.069L502.865 179.311L500.109 178.977L499.773 181.733Z" fill="black"/>
<path d="M519.456 161.467L504.673 173.042L516.248 187.824L531.03 176.25L519.456 161.467Z" fill="white"/>
<path d="M516.076 188.61L503.75 172.867L519.493 160.54L531.82 176.281L516.076 188.61ZM505.454 173.075L516.277 186.898L530.099 176.073L519.276 162.25L505.454 173.075Z" fill="black"/>
<path d="M525.163 174.575L517.786 167.198L510.409 174.575L517.786 181.952L525.163 174.575Z" fill="white"/>
<path d="M517.784 182.814L509.546 174.575L517.784 166.334L526.023 174.575L517.784 182.814ZM511.27 174.575L517.784 181.09L524.299 174.575L517.784 168.06L511.27 174.575Z" fill="black"/>
<path d="M519.43 176.799L519.913 172.832L515.945 172.349L515.463 176.316L519.43 176.799Z" fill="white"/>
<path d="M520.059 177.479L514.88 176.848L515.51 171.671L520.689 172.3L520.059 177.479ZM516.238 175.785L518.995 176.121L519.331 173.363L516.574 173.027L516.238 175.785Z" fill="black"/>
<path d="M503.894 152.253L489.111 163.827L500.685 178.61L515.468 167.035L503.894 152.253Z" fill="white"/>
<path d="M500.513 179.396L488.186 163.653L503.93 151.326L516.257 167.069L500.513 179.396ZM489.899 163.869L500.722 177.692L514.544 166.868L503.721 153.046L489.899 163.869Z" fill="black"/>
<path d="M509.599 165.362L502.222 157.985L494.845 165.362L502.222 172.739L509.599 165.362Z" fill="white"/>
<path d="M502.215 173.599L493.977 165.361L502.215 157.122L510.454 165.361L502.215 173.599ZM495.701 165.361L502.215 171.875L508.73 165.361L502.215 158.846L495.701 165.361Z" fill="black"/>
<path d="M503.867 167.586L504.35 163.618L500.382 163.135L499.899 167.103L503.867 167.586Z" fill="white"/>
<path d="M504.496 168.265L499.317 167.635L499.947 162.457L505.126 163.086L504.496 168.265ZM500.675 166.571L503.43 166.905L503.766 164.146L501.009 163.813L500.675 166.571Z" fill="black"/>
<path d="M553.179 51.4374H456.814V139.353H553.179V51.4374Z" fill="white"/>
<path d="M551.153 53.4612V137.327H458.836V53.4612H551.153M555.2 49.4136H454.788V141.375H555.2V49.4136Z" fill="#101010"/>
<path d="M504.996 93.9309C515.457 93.9309 523.937 85.4509 523.937 74.9903C523.937 64.5296 515.457 56.0496 504.996 56.0496C494.535 56.0496 486.055 64.5296 486.055 74.9903C486.055 85.4509 494.535 93.9309 504.996 93.9309Z" fill="#FFC793"/>
<path d="M504.994 94.4369C499.839 94.431 494.896 92.3803 491.25 88.7346C487.604 85.089 485.553 80.1461 485.547 74.9903C485.553 69.8345 487.604 64.8916 491.25 61.246C494.896 57.6003 499.839 55.5496 504.994 55.5437C510.15 55.549 515.093 57.5996 518.739 61.2454C522.385 64.8912 524.436 69.8344 524.441 74.9903C524.435 80.1461 522.384 85.089 518.738 88.7346C515.093 92.3803 510.15 94.431 504.994 94.4369V94.4369ZM504.994 56.5556C500.107 56.5615 495.421 58.5056 491.965 61.9615C488.509 65.4174 486.565 70.1029 486.559 74.9903C486.565 79.8777 488.509 84.5632 491.965 88.0191C495.421 91.475 500.107 93.4191 504.994 93.425C509.882 93.4191 514.567 91.475 518.023 88.0191C521.479 84.5632 523.423 79.8777 523.429 74.9903C523.424 70.1027 521.48 65.4169 518.024 61.9609C514.568 58.5049 509.882 56.5609 504.994 56.5556V56.5556Z" fill="black"/>
<path d="M515.904 100.099C493.653 95.214 473.49 97.847 458.833 101.737V103.831C471.514 100.409 488.492 97.9016 507.404 100.616C510.135 101.007 512.901 101.511 515.702 102.127C518.535 102.052 521.309 102.077 524.022 102.204C521.298 101.385 518.592 100.684 515.904 100.099Z" fill="black"/>
<path d="M526.513 119.425C500.113 110.87 475.789 113.689 458.836 118.188V120.283C475.532 115.778 499.678 112.855 525.89 121.349C534.773 124.238 543.26 128.227 551.153 133.223V130.837C543.425 126.063 535.153 122.231 526.513 119.425V119.425Z" fill="black"/>
<path d="M515.904 100.672C513.13 100.739 510.296 100.905 507.404 101.188C499.269 101.979 491.243 103.648 483.467 106.167C474.828 108.973 466.556 112.805 458.827 117.579V119.965C466.72 114.969 475.207 110.98 484.091 108.091C494.317 104.784 504.966 102.968 515.71 102.7V102.7C518.543 102.626 521.317 102.652 524.03 102.777C533.198 103.2 542.291 104.625 551.149 107.027V104.932C541.477 102.362 529.399 100.342 515.904 100.672Z" fill="black"/>
</g>
<defs>
<filter id="filter0_d_0_69" x="0" y="0.413574" width="1008.65" height="455.586" filterUnits="userSpaceOnUse" color-interpolation-filters="sRGB">
<feFlood flood-opacity="0" result="BackgroundImageFix"/>
<feColorMatrix in="SourceAlpha" type="matrix" values="0 0 0 0 0 0 0 0 0 0 0 0 0 0 0 0 0 0 127 0" result="hardAlpha"/>
<feOffset dy="38"/>
<feGaussianBlur stdDeviation="43.5"/>
<feComposite in2="hardAlpha" operator="out"/>
<feColorMatrix type="matrix" values="0 0 0 0 0 0 0 0 0 0 0 0 0 0 0 0 0 0 0.25 0"/>
<feBlend mode="normal" in2="BackgroundImageFix" result="effect1_dropShadow_0_69"/>
<feBlend mode="normal" in="SourceGraphic" in2="effect1_dropShadow_0_69" result="shape"/>
</filter>
</defs>
</svg>
