<?xml version="1.0" encoding="utf-8"?>
<!-- Generator: Adobe Illustrator 25.2.0, SVG Export Plug-In . SVG Version: 6.00 Build 0)  -->
<svg version="1.1" id="Layer_1" xmlns="http://www.w3.org/2000/svg" xmlns:xlink="http://www.w3.org/1999/xlink" x="0px" y="0px"
	 viewBox="0 0 1920 1339" style="enable-background:new 0 0 1920 1339;" xml:space="preserve">
<style type="text/css">
	.st0{fill:#EAD485;stroke:#000000;stroke-width:9;}
</style>
<path class="st0" d="M839.7,66.6c87.5-53.6,189.6,5.7,308.3-1.3c99.7-5.9,195.7-16.5,286-29.8V325H-208
	c5.8-65.2,11.6-97.1,17.3-112.2c1.4-3.8,2.9-6.6,4.3-8.5c1.4-2,2.8-3,3.9-3.5c0.2-0.1,0.5-0.2,0.6-0.2s0.1,0,0.2,0
	c0.2,0,0.6,0.1,1.2,0.2c0.6,0.1,1.2,0.3,2,0.5h0.1c0.7,0.2,1.5,0.4,2.4,0.6c0.9,0.2,2,0.4,3.2,0.5c1.3,0.1,2.9,0.1,4.5-0.1
	c1.4-0.2,2.6-0.6,3.5-1c1.8-0.8,3.4-2.2,4.9-4.2c3.1-4.2,4.3-8.5,4.4-8.7c1.7-6.2,9.6-30.6,20.5-64.4c92.8-38.4,174.3-62.5,237-78
	c65.4-16.2,132.9-32.4,224.8-37.1C418.7,4.2,485,13.8,500,16c51.1,7.7,86.1,12.9,131.5,30.4C700.8,73.2,727.3,102.7,776,96
	C805.4,91.9,821.8,77.6,839.7,66.6z"/>
</svg>
