<?xml version="1.0" encoding="utf-8"?>
<!-- Generator: Adobe Illustrator 25.2.0, SVG Export Plug-In . SVG Version: 6.00 Build 0)  -->
<svg version="1.1" id="Layer_1" xmlns="http://www.w3.org/2000/svg" xmlns:xlink="http://www.w3.org/1999/xlink" x="0px" y="0px"
	 viewBox="0 0 1920 1339" style="enable-background:new 0 0 1920 1339;" xml:space="preserve">
<style type="text/css">
	.st0{fill:#FFFB93;stroke:#000000;stroke-width:9;}
</style>
<path class="st0" d="M1252.8,398.3c271.3,41.6,533.2-16.5,766.2-113.2V1339H-98c7.6-237.2,14.9-353.3,22.4-408.5
	c1.9-13.7,3.7-23.9,5.5-30.8c1.9-7.2,3.6-10.8,5-12.7c0.3-0.4,0.5-0.6,0.8-0.8c0.1,0,0.1-0.2,0.2-0.2c0.2,0,0.7,0.2,1.4,0.6
	c0.8,0.4,1.5,1.1,2.5,1.9h0.1c0.9,0.6,2,1.5,3.1,2.1c1.1,0.6,2.5,1.5,4.2,1.9c1.8,0.4,3.7,0.4,5.7-0.4c1.9-0.8,3.3-2.1,4.5-3.6
	c2.3-3,4.3-8,6.1-15.2c1.9-7.4,3.8-17.5,5.7-31.5c7.6-56.2,15.1-172.8,22.5-411.4c302.2-157.1,529.7-161.1,735-135.6l0,0
	c102.6,12.7,180.4,30.4,259.4,48.8c5.4,1.3,10.8,2.5,16.3,3.8C1076.5,364.9,1152.9,382.9,1252.8,398.3z"/>
</svg>
