<svg width="1920" height="1339" viewBox="0 0 1920 1339" fill="none" xmlns="http://www.w3.org/2000/svg">
<path d="M1166.49 149.981C1457.42 202.436 1738.41 129.122 1988.3 7.34558V1334.5H-282.378C-274.365 1035.65 -266.356 889.586 -258.371 820.028C-256.366 802.562 -254.373 790.028 -252.409 781.159C-250.414 772.157 -248.538 767.385 -247.007 765.066C-246.65 764.526 -246.358 764.191 -246.149 763.993C-246.057 763.904 -245.985 763.847 -245.934 763.81C-245.669 763.89 -245.171 764.127 -244.368 764.717C-243.556 765.313 -242.706 766.06 -241.666 766.98L-241.596 767.042C-240.638 767.889 -239.502 768.894 -238.33 769.755C-237.141 770.628 -235.632 771.571 -233.879 772.07C-232.002 772.605 -229.864 772.619 -227.73 771.627C-225.712 770.689 -224.133 769.052 -222.853 767.114C-220.357 763.335 -218.207 757.181 -216.176 748.014C-214.115 738.714 -212.081 725.835 -210.061 708.232C-202.005 638.058 -193.974 491.074 -185.947 190.846C138.127 -7.07684 382.166 -12.0091 602.354 19.9533L602.354 19.9534C712.412 35.9118 795.902 58.0232 880.666 81.3549C886.486 82.9569 892.312 84.5647 898.153 86.1766C977.399 108.045 1059.43 130.682 1166.49 149.981Z" fill="#FFFB93" stroke="black" stroke-width="9"/>
</svg>
