<?xml version="1.0" encoding="utf-8"?>
<!-- Generator: Adobe Illustrator 25.2.0, SVG Export Plug-In . SVG Version: 6.00 Build 0)  -->
<svg version="1.1" id="Layer_1" xmlns="http://www.w3.org/2000/svg" xmlns:xlink="http://www.w3.org/1999/xlink" x="0px" y="0px"
	 viewBox="0 0 1920 1080" style="enable-background:new 0 0 1920 1080;" xml:space="preserve">
<style type="text/css">
	.st0{fill:#FFE793;stroke:#000000;stroke-width:5;}
</style>
<path class="st0" d="M2022.9,113.7c-398.2-101.8-698.1-104.5-968.7-88l-0.2-1.3l0.2,1.3c-135,8.2-237.3,19.6-341.1,31.4
	c-7.1,0.8-14.2,1.7-21.4,2.5c-97,11.2-197.3,22.8-328.2,32.7c-89.4,6.7-145.3,9.4-183.7,8.7c-38.5-0.8-59.4-5-78.8-12.3
	c-8.5-3.2-16.8-7-26-11.2c-1.1-0.6-2.3-1-3.4-1.5c-10.7-4.9-22.9-10.3-38.7-16.3C1.7,47.7-43.6,33.8-118.5,18.3V1229h2042.1
	c-19.5-308.4,15-433,49.6-557.7l0,0C2007.9,546.7,2042.5,422.1,2022.9,113.7z"/>
</svg>
